<svg width="376" height="36" viewBox="0 0 376 36" fill="none" xmlns="http://www.w3.org/2000/svg">
<path d="M0.453125 1.01562H5.07031V35H0.453125V1.01562ZM26.4219 35H20.5859L6.07812 16.6719L19.625 1.01562H25.2266L11.7969 16.5781L26.4219 35ZM50.4594 16.6719C48.9906 14.5625 47.2328 11.7734 45.1859 8.30469V35H40.8031V1.01562H44.6937L57.2797 18.875C58.5297 20.6406 60.4047 23.5547 62.9047 27.6172V1.01562H67.2641V35H63.3734L50.4594 16.6719ZM90.4109 15.1719H104.427V19.25H90.4109V30.9219H106.536V35H85.7937V1.01562H106.02V5.09375H90.4109V15.1719ZM136.222 0.640625C137.956 0.640625 139.675 0.882812 141.378 1.36719C143.097 1.83594 144.706 2.53125 146.206 3.45312L144.284 7.20312C142.816 6.40625 141.433 5.83594 140.136 5.49219C138.839 5.13281 137.534 4.95312 136.222 4.95312C132.613 4.95312 129.823 6.07812 127.855 8.32812C125.886 10.5625 124.902 13.7578 124.902 17.9141C124.902 22.1016 125.87 25.3359 127.808 27.6172C129.745 29.8828 132.503 31.0156 136.081 31.0156C138.925 31.0156 141.823 30.3438 144.777 29L146.464 32.9375C144.902 33.6719 143.183 34.2578 141.308 34.6953C139.433 35.1172 137.628 35.3281 135.894 35.3281C130.769 35.3281 126.855 33.8359 124.152 30.8516C121.448 27.8516 120.097 23.5391 120.097 17.9141C120.097 14.3359 120.738 11.25 122.019 8.65625C123.3 6.0625 125.144 4.07812 127.55 2.70312C129.972 1.32812 132.863 0.640625 136.222 0.640625ZM182.619 5.09375H172.681V35H168.064V5.09375H157.541V1.01562H182.619V5.09375ZM219.125 1.01562H223.742V35H219.125V19.3906H201.758V35H197.141V1.01562H201.758V15.3125H219.125V1.01562ZM255.584 0.640625C260.475 0.640625 264.264 2.14844 266.952 5.16406C269.639 8.16406 270.983 12.3984 270.983 17.8672C270.983 23.5234 269.655 27.875 266.998 30.9219C264.342 33.9531 260.538 35.4688 255.584 35.4688C250.6 35.4688 246.772 33.9609 244.1 30.9453C241.444 27.9141 240.116 23.5547 240.116 17.8672C240.116 12.3672 241.459 8.125 244.147 5.14062C246.834 2.14062 250.647 0.640625 255.584 0.640625ZM255.584 4.95312C252.131 4.95312 249.491 6.0625 247.663 8.28125C245.834 10.4844 244.92 13.6797 244.92 17.8672C244.92 22.1484 245.842 25.4375 247.686 27.7344C249.53 30.0156 252.163 31.1562 255.584 31.1562C259.006 31.1562 261.623 30.0078 263.436 27.7109C265.264 25.3984 266.178 22.1172 266.178 17.8672C266.178 13.7109 265.264 10.5234 263.436 8.30469C261.623 6.07031 259.006 4.95312 255.584 4.95312ZM304.841 5.09375H294.903V35H290.286V5.09375H279.763V1.01562H304.841V5.09375ZM323.98 15.1719H337.995V19.25H323.98V30.9219H340.105V35H319.362V1.01562H339.589V5.09375H323.98V15.1719ZM375.955 35H355.822V1.01562H360.439V30.9219H375.955V35Z" fill="url(#paint0_linear_70_32)"/>
<defs>
<linearGradient id="paint0_linear_70_32" x1="-4" y1="18" x2="377" y2="18" gradientUnits="userSpaceOnUse">
<stop stop-color="#DBB866"/>
<stop offset="1" stop-color="#987438"/>
</linearGradient>
</defs>
</svg>
